<?xml version="1.0" standalone="no"?><!DOCTYPE svg PUBLIC "-//W3C//DTD SVG 1.1//EN" "http://www.w3.org/Graphics/SVG/1.1/DTD/svg11.dtd"><svg t="1585150709488" class="icon" viewBox="0 0 1024 1024" version="1.1" xmlns="http://www.w3.org/2000/svg" p-id="4133" xmlns:xlink="http://www.w3.org/1999/xlink" width="200" height="200"><defs><style type="text/css"></style></defs><path d="M170.688 177.344L241.152 128l529.728 718.656-70.528 49.344L170.688 177.344z m704.64 110.4a53.952 53.952 0 0 0-33.024 10.816l-127.68 96.128V366.72c0-57.92-48.192-104.896-107.584-104.896H367.808l346.112 469.888v-34.944l128 96.832a53.952 53.952 0 0 0 33.024 10.88 55.04 55.04 0 0 0 35.84-12.224 46.72 46.72 0 0 0 17.216-35.008V337.728a49.024 49.024 0 0 0-15.36-35.968 51.648 51.648 0 0 0-37.376-14.08zM208.896 260.8h-5.376c-59.392 0-107.584 46.976-107.584 104.896v364.992c0 57.92 48.192 104.896 107.584 104.896h402.368c8.32 0 16.64-0.96 24.768-2.816l-421.76-571.968z" p-id="4134" fill="#eeeeee"></path></svg>